<svg width="24" height="32" viewBox="0 0 24 32" fill="none" xmlns="http://www.w3.org/2000/svg">
<path d="M1.33331 20L0.46507 19.5039C0.288211 19.8134 0.289481 20.1936 0.468403 20.5019C0.647325 20.8102 0.976843 21 1.33331 21L1.33331 20ZM12 1.33333H13C13 0.879899 12.6949 0.483214 12.2566 0.366832C11.8184 0.250451 11.3567 0.443503 11.1317 0.837193L12 1.33333ZM12 20H13C13 19.4477 12.5523 19 12 19V20ZM12 30.6667H11C11 31.1201 11.3051 31.5168 11.7433 31.6332C12.1816 31.7495 12.6433 31.5565 12.8682 31.1628L12 30.6667ZM22.6666 12L23.5349 12.4961C23.7117 12.1866 23.7105 11.8064 23.5316 11.4981C23.3526 11.1898 23.0231 11 22.6666 11V12ZM12 12H11C11 12.5523 11.4477 13 12 13V12ZM2.20156 20.4961L12.8682 1.82947L11.1317 0.837193L0.46507 19.5039L2.20156 20.4961ZM12 19H1.33331V21H12V19ZM13 30.6667V20H11V30.6667H13ZM21.7984 11.5039L11.1317 30.1705L12.8682 31.1628L23.5349 12.4961L21.7984 11.5039ZM12 13H22.6666V11H12V13ZM11 1.33333V12H13V1.33333H11Z" fill="#4E4B66"/>
</svg>
