<svg width="34" height="46" viewBox="0 0 34 46" fill="none" xmlns="http://www.w3.org/2000/svg">
<path d="M1 29L0.131757 28.5039C-0.045102 28.8134 -0.0438321 29.1936 0.13509 29.5019C0.314012 29.8102 0.64353 30 1 30L1 29ZM17 1H18C18 0.546567 17.6949 0.149882 17.2567 0.0335004C16.8184 -0.0828815 16.3567 0.110171 16.1318 0.503861L17 1ZM17 29H18C18 28.4477 17.5523 28 17 28V29ZM17 45H16C16 45.4534 16.3051 45.8501 16.7433 45.9665C17.1816 46.0829 17.6433 45.8898 17.8682 45.4961L17 45ZM33 17L33.8682 17.4961C34.0451 17.1866 34.0438 16.8064 33.8649 16.4981C33.686 16.1898 33.3565 16 33 16V17ZM17 17H16C16 17.5523 16.4477 18 17 18V17ZM1.86824 29.4961L17.8682 1.49614L16.1318 0.503861L0.131757 28.5039L1.86824 29.4961ZM17 28H1V30H17V28ZM18 45V29H16V45H18ZM32.1318 16.5039L16.1318 44.5039L17.8682 45.4961L33.8682 17.4961L32.1318 16.5039ZM17 18H33V16H17V18ZM16 1V17H18V1H16Z" fill="#CDCFF5"/>
</svg>
