<svg width="48" height="48" viewBox="0 0 48 48"  xmlns="http://www.w3.org/2000/svg">
<path d="M46 24C46 24 13 24 9 24C5 24 2 21 2 17C2 13 5 11 9 11C13 11 15 13 16 16" stroke="#CDCFF5" stroke-width="2" stroke-linecap="round" stroke-linejoin="round"/>
<path d="M46 33C46 33 21 33 17 33C13 33 10 36 10 40C10 44 13 46 17 46C21 46 23 44 24 41" stroke="#CDCFF5" stroke-width="2" stroke-linecap="round" stroke-linejoin="round"/>
<path d="M46 15C46 15 33 15 29 15C25 15 22 12 22 8C22 4 25 2 29 2C33 2 35 4 36 7" stroke="#CDCFF5" stroke-width="2" stroke-linecap="round" stroke-linejoin="round"/>
</svg>
