<svg width="25" height="24" viewBox="0 0 25 24"  xmlns="http://www.w3.org/2000/svg">
<g clip-path="url(#clip0_6_1393)">
<path d="M0.557129 24L2.24413 17.837C1.20313 16.033 0.656129 13.988 0.657129 11.891C0.660129 5.335 5.99513 0 12.5501 0C15.7311 0.001 18.7171 1.24 20.9631 3.488C23.2081 5.736 24.4441 8.724 24.4431 11.902C24.4401 18.459 19.1051 23.794 12.5501 23.794C10.5601 23.793 8.59913 23.294 6.86213 22.346L0.557129 24ZM7.15413 20.193C8.83013 21.188 10.4301 21.784 12.5461 21.785C17.9941 21.785 22.4321 17.351 22.4351 11.9C22.4371 6.438 18.0201 2.01 12.5541 2.008C7.10213 2.008 2.66713 6.442 2.66513 11.892C2.66413 14.117 3.31613 15.783 4.41113 17.526L3.41213 21.174L7.15413 20.193ZM18.5411 14.729C18.4671 14.605 18.2691 14.531 17.9711 14.382C17.6741 14.233 16.2131 13.514 15.9401 13.415C15.6681 13.316 15.4701 13.266 15.2711 13.564C15.0731 13.861 14.5031 14.531 14.3301 14.729C14.1571 14.927 13.9831 14.952 13.6861 14.803C13.3891 14.654 12.4311 14.341 11.2961 13.328C10.4131 12.54 9.81613 11.567 9.64313 11.269C9.47013 10.972 9.62513 10.811 9.77313 10.663C9.90713 10.53 10.0701 10.316 10.2191 10.142C10.3701 9.97 10.4191 9.846 10.5191 9.647C10.6181 9.449 10.5691 9.275 10.4941 9.126C10.4191 8.978 9.82513 7.515 9.57813 6.92C9.33613 6.341 9.09113 6.419 8.90913 6.41L8.33913 6.4C8.14113 6.4 7.81913 6.474 7.54713 6.772C7.27513 7.07 6.50713 7.788 6.50713 9.251C6.50713 10.714 7.57213 12.127 7.72013 12.325C7.86913 12.523 9.81513 15.525 12.7961 16.812C13.5051 17.118 14.0591 17.301 14.4901 17.438C15.2021 17.664 15.8501 17.632 16.3621 17.556C16.9331 17.471 18.1201 16.837 18.3681 16.143C18.6161 15.448 18.6161 14.853 18.5411 14.729Z" fill="#14142B"/>
</g>
<defs>
<clipPath id="clip0_6_1393">
<rect width="24" height="24" fill="white" transform="translate(0.5)"/>
</clipPath>
</defs>
</svg>
